<svg width="467" height="53" viewBox="0 0 467 53" fill="none" xmlns="http://www.w3.org/2000/svg">
<path d="M43.2129 0.585938L44.2969 1.34766C43.8867 3.24219 43.3203 4.73633 42.5977 5.83008C41.8945 6.92383 40.8496 7.79297 39.4629 8.4375C38.0957 9.0625 36.5137 9.375 34.7168 9.375C33.7598 9.375 32.5977 9.31641 31.2305 9.19922V38.8184C34.1992 37.9199 36.5625 36.7676 38.3203 35.3613C40.0781 33.9355 41.709 31.8945 43.2129 29.2383L44.2969 29.7656C43.4375 32.3828 42.4414 34.4824 41.3086 36.0645C39.4922 38.623 37.1484 40.6543 34.2773 42.1582C31.4062 43.6426 28.0859 44.3848 24.3164 44.3848C20.6445 44.3848 17.207 43.6816 14.0039 42.2754C12.1484 41.4551 10.4492 40.3027 8.90625 38.8184C7.36328 37.334 6.09375 35.5371 5.09766 33.4277C4.12109 31.3184 3.63281 28.9258 3.63281 26.25C3.63281 23.5547 4.16992 20.9766 5.24414 18.5156C6.31836 16.0547 7.90039 13.7012 9.99023 11.4551C11.3184 10.0488 13.1934 8.49609 15.6152 6.79688L11.9238 6.5918C10.5566 6.51367 9.04297 6.80664 7.38281 7.4707C5.72266 8.11523 4.42383 8.98438 3.48633 10.0781C2.56836 11.1719 1.76758 12.8027 1.08398 14.9707L0 14.3262C0.664062 11.5527 1.52344 9.39453 2.57812 7.85156C3.98438 5.80078 5.83984 4.21875 8.14453 3.10547C10.4492 1.97266 13.0762 1.40625 16.0254 1.40625C18.0762 1.40625 21.6992 1.83594 26.8945 2.69531C32.0898 3.55469 35.6641 3.98438 37.6172 3.98438C38.9258 3.98438 39.9219 3.78906 40.6055 3.39844C41.3086 2.98828 42.1777 2.05078 43.2129 0.585938ZM18.8965 7.08984L17.3438 6.94336C14.7266 9.18945 12.8027 11.4355 11.5723 13.6816C9.91211 16.709 9.08203 19.8242 9.08203 23.0273C9.08203 28.4961 11.3281 32.959 15.8203 36.416C17.2461 35.2246 18.1152 34.2578 18.4277 33.5156C18.7402 32.7734 18.8965 31.2598 18.8965 28.9746V7.08984ZM29.8828 8.93555C28.0273 8.68164 26.3867 8.4082 24.9609 8.11523V25.6348C24.9609 27.6855 24.873 28.9941 24.6973 29.5605C24.541 30.1074 24.1602 30.7324 23.5547 31.4355C22.4609 32.6465 20.2734 34.5605 16.9922 37.1777C18.6328 37.9785 19.9609 38.5156 20.9766 38.7891C22.7344 39.2578 24.4238 39.4922 26.0449 39.4922C26.9043 39.4922 28.1836 39.3848 29.8828 39.1699V8.93555ZM59.1211 2.40234L59.4141 3.10547C58.0273 4.00391 57.0801 4.96094 56.5723 5.97656C56.0645 6.99219 55.8105 8.60352 55.8105 10.8105V20.3613L64.8633 13.1543C66.7969 14.4043 68.0566 15.6152 68.6426 16.7871C69.2285 17.9395 69.5215 19.9121 69.5215 22.7051V35.9766C69.5215 38.5156 69.2578 40.3711 68.7305 41.543C67.8906 43.457 66.3379 45.2539 64.0723 46.9336C61.1035 49.1602 57.3242 51.084 52.7344 52.7051L52.3242 51.6211C56.0547 50.0781 58.6523 48.6719 60.1172 47.4023C61.582 46.1328 62.5391 44.7852 62.9883 43.3594C63.3203 42.2852 63.4863 39.4922 63.4863 34.9805V22.7051C63.4863 21.3379 63.3496 20.3906 63.0762 19.8633C62.666 19.1406 61.9141 18.4277 60.8203 17.7246L55.8105 21.7969V38.1152L57.8906 40.1953L52.7344 44.3848L47.5195 40.1953L49.834 37.8809V11.2207C49.834 8.79883 49.6191 7.13867 49.1895 6.24023C48.7598 5.3418 47.9102 4.53125 46.6406 3.80859L46.9629 3.10547C47.998 3.39844 48.8281 3.73047 49.4531 4.10156C50.0781 4.45312 50.8984 5.07812 51.9141 5.97656C53.1055 4.84375 54.248 4.01367 55.3418 3.48633C56.4355 2.95898 57.6953 2.59766 59.1211 2.40234ZM87.1289 13.1543L95.3906 22.793L82.2656 31.9922V37.3242L89.0625 40.0195L93.6621 36.8848L94.3066 37.7637L84.8145 44.3848C82.8809 43.3496 81.2891 42.6074 80.0391 42.1582C78.7891 41.709 77.0117 41.2402 74.707 40.752V40.0195C75.3711 39.6289 75.8105 39.1504 76.0254 38.584C76.2598 37.998 76.377 36.748 76.377 34.834V18.0762C78.2129 17.4121 79.7363 16.8066 80.9473 16.2598C81.8262 15.8496 83.8867 14.8145 87.1289 13.1543ZM82.6758 16.5234L82.2656 16.7285V30L89.9707 24.6094L82.6758 16.5234ZM112.588 0.878906H113.965C114.277 1.85547 114.795 2.54883 115.518 2.95898C116.455 3.50586 117.979 3.7793 120.088 3.7793C121.436 3.7793 125.713 3.64258 132.92 3.36914C137.275 3.19336 139.99 3.10547 141.064 3.10547C144.307 3.10547 147.061 3.66211 149.326 4.77539C151.611 5.88867 153.467 7.59766 154.893 9.90234C156.318 12.207 157.266 15.3809 157.734 19.4238C158.066 22.2559 158.35 28.4961 158.584 38.1445C154.775 40.5469 151.846 42.627 149.795 44.3848C143.584 42.6465 138.105 41.7773 133.359 41.7773C130.137 41.7773 127.148 42.168 124.395 42.9492C121.641 43.7109 118.721 44.9414 115.635 46.6406L114.785 45.5273C118.789 43.457 122.305 41.3379 125.332 39.1699C128.359 37.002 130.352 35.0684 131.309 33.3691C132.285 31.6504 132.773 29.4727 132.773 26.8359C132.773 25.8789 132.754 24.4629 132.715 22.5879C132.676 21.2793 132.656 19.9219 132.656 18.5156C132.656 16.0352 132.793 14.209 133.066 13.0371C133.359 11.8652 133.965 10.5176 134.883 8.99414H134.121C131.738 10.3613 130.146 11.6113 129.346 12.7441C128.564 13.8574 128.174 15.2832 128.174 17.0215L128.408 27.4219C128.408 30.1953 127.578 32.6855 125.918 34.8926C124.258 37.0801 120.273 40.2441 113.965 44.3848L113.115 43.2422C116.299 41.0156 118.398 39.1895 119.414 37.7637C120.43 36.3379 120.938 34.8438 120.938 33.2812C120.938 31.9336 120.508 30.791 119.648 29.8535C118.789 28.8965 117.842 28.418 116.807 28.418C116.279 28.418 115.791 28.5645 115.342 28.8574C114.893 29.1504 114.287 29.7559 113.525 30.6738L112.588 29.7363C113.252 28.0566 114.131 26.8262 115.225 26.0449C116.338 25.2637 117.666 24.873 119.209 24.873C119.658 24.873 120.146 24.9219 120.674 25.0195C121.221 25.1172 121.807 25.2637 122.432 25.459C122.393 24.3262 122.373 23.3398 122.373 22.5C122.373 19.4336 122.988 16.9434 124.219 15.0293C125.469 13.0957 127.852 11.084 131.367 8.99414C128.145 9.32617 125.361 9.49219 123.018 9.49219C120.537 9.49219 118.408 9.14062 116.631 8.4375C115.303 7.89062 114.326 7.02148 113.701 5.83008C113.076 4.61914 112.705 2.96875 112.588 0.878906ZM136.318 8.99414C135.479 10.4199 134.912 11.6602 134.619 12.7148C134.229 14.1602 134.033 15.5078 134.033 16.7578L134.268 28.3008C134.268 29.7852 133.896 31.2988 133.154 32.8418C132.588 33.9941 131.523 35.4004 129.961 37.0605C132.812 36.5918 134.99 36.3672 136.494 36.3867L138.164 36.416V8.99414H136.318ZM139.658 20.2441C140.85 21.084 141.885 21.6602 142.764 21.9727C143.662 22.2852 144.629 22.4414 145.664 22.4414C146.699 22.4414 147.666 22.2852 148.564 21.9727C149.463 21.6406 150.518 21.0645 151.729 20.2441C151.357 15.8496 150.225 12.8809 148.33 11.3379C146.436 9.77539 143.545 8.99414 139.658 8.99414V20.2441ZM139.658 29.9121C140.986 29.1504 142.119 28.6328 143.057 28.3594C143.994 28.0664 145.02 27.9199 146.133 27.9199C147.207 27.9199 148.203 28.0566 149.121 28.3301C150.039 28.584 151.143 29.0723 152.432 29.7949L151.934 21.8555C150.684 22.6172 149.6 23.1445 148.682 23.4375C147.783 23.7109 146.797 23.8477 145.723 23.8477C144.688 23.8477 143.662 23.6816 142.646 23.3496C141.631 23.0176 140.635 22.5195 139.658 21.8555V29.9121ZM139.658 36.5039C142.041 36.6992 143.975 36.9434 145.459 37.2363C146.963 37.5098 149.307 38.0957 152.49 38.9941C152.529 36.0449 152.549 34.5215 152.549 34.4238C152.549 34.1895 152.529 33.252 152.49 31.6113C151.24 30.752 150.137 30.1562 149.18 29.8242C148.242 29.4922 147.217 29.3262 146.104 29.3262C144.971 29.3262 143.916 29.4922 142.939 29.8242C141.982 30.1562 140.889 30.752 139.658 31.6113V36.5039ZM180.527 13.1543L184.951 18.457L180.527 22.3828L176.836 17.7246L173.936 20.3613V37.4414L177.275 39.8438L180.293 37.4414L180.967 38.3789L173.467 44.3848C171.865 42.959 170.518 41.9336 169.424 41.3086C168.35 40.6836 167.168 40.1953 165.879 39.8438V39.1992C166.738 38.5938 167.295 37.9883 167.549 37.3828C167.822 36.7578 167.959 35.5762 167.959 33.8379V21.8848C167.959 20.3809 167.783 19.3848 167.432 18.8965C167.1 18.3887 166.729 18.1348 166.318 18.1348C165.869 18.1348 165.254 18.5254 164.473 19.3066L163.77 18.457L169.951 13.1543C171.611 14.4238 172.744 15.5273 173.35 16.4648C173.74 17.0508 173.936 17.8613 173.936 18.8965L180.527 13.1543ZM208.945 14.4141L210 14.8242C208.945 16.4648 208.271 17.7246 207.979 18.6035C207.705 19.4629 207.568 20.6348 207.568 22.1191V34.5996C207.568 36.6699 207.725 37.9688 208.037 38.4961C208.369 39.0039 208.76 39.2578 209.209 39.2578C209.443 39.2578 209.688 39.1992 209.941 39.082C210.098 38.9844 210.557 38.6328 211.318 38.0273L211.963 38.9941L205.43 44.3848C203.926 43.2129 202.92 42.168 202.412 41.25C201.904 40.3125 201.621 39.0137 201.562 37.3535L192.656 44.3848C189.316 41.6504 187.646 38.9551 187.646 36.2988C187.646 34.5215 188.008 32.8516 188.73 31.2891C189.688 29.2383 191.338 26.8457 193.682 24.1113L190.166 16.6113L190.576 15.791C191.338 15.8691 191.904 15.9082 192.275 15.9082C194.58 15.9082 196.611 14.9902 198.369 13.1543C199.795 13.9941 201.348 14.668 203.027 15.1758C204.727 15.6836 206.025 15.9375 206.924 15.9375C207.334 15.9375 207.646 15.8691 207.861 15.7324C208.076 15.5762 208.438 15.1367 208.945 14.4141ZM201.562 20.0098L191.543 16.9336L195.117 24.4922L201.562 27.5098V20.0098ZM201.562 28.7109L194.473 25.4004C193.379 27.7832 192.832 29.873 192.832 31.6699C192.832 34.834 194.268 37.4414 197.139 39.4922L201.562 35.918V28.7109ZM227.783 13.1543L236.895 17.4316L242.344 14.6777V21.2695L237.07 20.2441V33.5449C237.07 35.6934 237.197 37.1484 237.451 37.9102C237.783 38.9062 238.477 40.0586 239.531 41.3672C241.23 43.5352 242.08 45.0879 242.08 46.0254C242.08 46.9629 241.631 47.8613 240.732 48.7207C239.854 49.5801 237.49 50.9082 233.643 52.7051C232.334 52.2363 231.084 51.8848 229.893 51.6504C228.701 51.4355 227.568 51.3281 226.494 51.3281C223.916 51.3281 220.938 51.7871 217.559 52.7051L217.148 51.709L224.062 43.623L217.148 38.6426V17.4316C221.016 16.6113 224.561 15.1855 227.783 13.1543ZM231.123 20.1855L223.096 17.4316V36.6211L227.461 39.7852L231.123 35.3906V20.1855ZM222.305 47.4023C224.844 46.9922 226.895 46.7871 228.457 46.7871C229.863 46.7871 231.279 46.9727 232.705 47.3438C234.15 47.7148 235.605 48.2812 237.07 49.043L238.271 48.2812C235.635 45.8203 233.848 43.8281 232.91 42.3047C231.973 40.7812 231.377 39.1211 231.123 37.3242L222.305 47.4023ZM266.719 17.4316V39.3457C263.789 40.5371 261.67 41.5137 260.361 42.2754C259.365 42.8418 258.408 43.5449 257.49 44.3848C254.658 42.666 252.314 41.4746 250.459 40.8105C249.053 40.3027 247.461 40.0098 245.684 39.9316L245.391 39.3457C246.133 38.7207 246.602 38.1543 246.797 37.6465C247.07 36.9824 247.207 35.8594 247.207 34.2773V18.1934C250.781 17.002 253.838 15.3223 256.377 13.1543C259.15 14.9902 262.598 16.416 266.719 17.4316ZM253.125 36.5039L260.771 39.6387V21.0059C258.369 19.8926 256.67 19.1602 255.674 18.8086C254.971 18.5547 254.121 18.3398 253.125 18.1641V36.5039ZM290.332 13.1543L295.137 17.6367L297.979 14.8828L298.799 15.6738C297.432 16.9238 296.602 17.8711 296.309 18.5156C295.918 19.375 295.723 20.5566 295.723 22.0605V35.9766C295.723 37.2656 295.928 38.2227 296.338 38.8477C296.592 39.2578 296.875 39.4629 297.188 39.4629C297.461 39.4629 298.105 39.082 299.121 38.3203L299.824 39.2285L293.525 44.3848C291.904 43.1543 290.859 42.0703 290.391 41.1328C289.941 40.1758 289.717 38.6426 289.717 36.5332V20.3906L286.523 17.6367L281.777 21.416V38.0859L283.887 40.1953L278.701 44.3848L273.486 40.1953L275.771 38.0859V23.1152C275.771 20.9863 275.557 19.5508 275.127 18.8086C274.834 18.3008 274.502 18.0469 274.131 18.0469C273.74 18.0469 273.154 18.3496 272.373 18.9551L271.67 18.1348L277.91 13.1543C279.629 14.3652 280.703 15.3223 281.133 16.0254C281.562 16.7285 281.777 17.7051 281.777 18.9551V19.9512L290.332 13.1543ZM354.844 0C358.262 0.839844 360.928 1.875 362.842 3.10547C365.42 4.76563 367.373 6.79688 368.701 9.19922C370.049 11.6016 370.723 14.1602 370.723 16.875C370.723 18.7891 370.391 20.6934 369.727 22.5879C369.082 24.4824 368.018 26.5723 366.533 28.8574C366.006 29.6777 363.447 33.1445 358.857 39.2578C361.201 38.2227 363.555 37.7051 365.918 37.7051C366.934 37.7051 367.793 37.7832 368.496 37.9395C369.219 38.0762 369.766 38.1445 370.137 38.1445C370.469 38.1445 370.771 37.998 371.045 37.7051C371.338 37.3926 371.973 36.2988 372.949 34.4238L374.355 34.9512L369.316 44.3848C366.66 43.4863 364.463 43.0371 362.725 43.0371C360.752 43.0371 359.131 43.418 357.861 44.1797C356.592 44.9414 355.361 46.2695 354.17 48.1641L352.998 47.5781C353.662 45.5859 354.854 43.1055 356.572 40.1367C359.404 35.2734 361.523 31.2891 362.93 28.1836C361.152 27.0117 359.531 26.1816 358.066 25.6934C356.602 25.1855 355.049 24.9316 353.408 24.9316C352.041 24.9316 350.752 25.1074 349.541 25.459C348.35 25.791 346.943 26.4062 345.322 27.3047V32.4609C345.322 35.6055 345.156 37.8516 344.824 39.1992C344.512 40.5469 343.789 41.9238 342.656 43.3301C341.543 44.7168 340.098 45.8691 338.32 46.7871C336.562 47.7246 334.736 48.1934 332.842 48.1934C332.08 48.1934 331.328 48.1152 330.586 47.959C330.156 47.8809 328.926 47.5391 326.895 46.9336C324.883 46.3477 323.75 46.0254 323.496 45.9668C322.949 45.8691 322.363 45.8203 321.738 45.8203C320.82 45.8203 320 45.9473 319.277 46.2012C318.574 46.4551 317.734 46.9141 316.758 47.5781L315.938 46.8457C317.93 43.3105 320.635 41.543 324.053 41.543C325.439 41.543 327.236 41.7871 329.443 42.2754C330.791 42.5684 331.709 42.7148 332.197 42.7148C333.252 42.7148 334.16 42.2949 334.922 41.4551C335.684 40.5957 336.064 39.4922 336.064 38.1445C336.064 36.4258 335.469 34.9805 334.277 33.8086C333.105 32.6367 331.66 32.0508 329.941 32.0508C328.809 32.0508 327.598 32.5293 326.309 33.4863L325.488 32.7539C326.367 31.6602 327.236 30.8789 328.096 30.4102C328.955 29.9219 329.922 29.6777 330.996 29.6777C331.621 29.6777 332.266 29.7852 332.93 30C333.613 30.2148 334.316 30.5371 335.039 30.9668C334.707 29.248 334.121 27.9297 333.281 27.0117C331.816 25.4102 329.98 24.6094 327.773 24.6094C326.836 24.6094 326.064 24.707 325.459 24.9023C324.99 25.0586 324.404 25.4004 323.701 25.9277L322.998 24.9023C324.053 23.8281 325.02 23.0859 325.898 22.6758C326.777 22.2461 327.744 22.0312 328.799 22.0312C329.697 22.0312 330.527 22.168 331.289 22.4414C332.051 22.6953 333.076 23.252 334.365 24.1113C334.365 22.5293 334.102 21.2793 333.574 20.3613C333.066 19.4238 332.158 18.5742 330.85 17.8125C329.561 17.0508 328.301 16.6699 327.07 16.6699C325.957 16.6699 324.834 17.0605 323.701 17.8418L322.998 16.875C323.877 15.918 324.697 15.2637 325.459 14.9121C326.416 14.4238 327.451 14.1797 328.564 14.1797C329.521 14.1797 330.41 14.3262 331.23 14.6191C332.051 14.8926 333.096 15.4492 334.365 16.2891V9.75586L354.844 0ZM345.322 15.7617C347.178 16.8359 348.779 17.5879 350.127 18.0176C351.475 18.4277 352.881 18.6328 354.346 18.6328C356.006 18.6328 357.578 18.3691 359.062 17.8418C360.566 17.3145 362.314 16.377 364.307 15.0293C363.213 12.2363 361.357 10 358.74 8.32031C356.123 6.62109 353.184 5.77148 349.922 5.77148C348.535 5.77148 347.002 6.02539 345.322 6.5332V15.7617ZM343.975 6.94336L340.4 8.70117V33.9258C340.4 36.8555 340.107 38.9453 339.521 40.1953C338.936 41.4453 337.803 42.6465 336.123 43.7988C338.135 43.6426 339.59 43.2422 340.488 42.5977C341.816 41.6602 342.725 40.5176 343.213 39.1699C343.721 37.8027 343.975 35.4785 343.975 32.1973V6.94336ZM345.322 25.7227C347.041 24.9023 348.496 24.3359 349.688 24.0234C350.898 23.7109 352.197 23.5547 353.584 23.5547C355.342 23.5547 356.973 23.8086 358.477 24.3164C360 24.8242 361.641 25.6738 363.398 26.8652C363.945 25.4785 364.355 24.1504 364.629 22.8809C364.902 21.6113 365.039 20.4004 365.039 19.248C365.039 18.4277 364.932 17.5 364.717 16.4648C362.568 17.832 360.732 18.7695 359.209 19.2773C357.705 19.7852 356.133 20.0391 354.492 20.0391C353.066 20.0391 351.66 19.8438 350.273 19.4531C348.887 19.043 347.236 18.3301 345.322 17.3145V25.7227ZM391.641 13.1543L399.902 22.793L386.777 31.9922V37.3242L393.574 40.0195L398.174 36.8848L398.818 37.7637L389.326 44.3848C387.393 43.3496 385.801 42.6074 384.551 42.1582C383.301 41.709 381.523 41.2402 379.219 40.752V40.0195C379.883 39.6289 380.322 39.1504 380.537 38.584C380.771 37.998 380.889 36.748 380.889 34.834V18.0762C382.725 17.4121 384.248 16.8066 385.459 16.2598C386.338 15.8496 388.398 14.8145 391.641 13.1543ZM387.188 16.5234L386.777 16.7285V30L394.482 24.6094L387.188 16.5234ZM425.244 20.2148L433.945 13.1543C435.762 14.4629 436.943 15.625 437.49 16.6406C438.252 18.0078 438.633 19.5996 438.633 21.416V39.1699C436.582 39.8145 434.854 40.5273 433.447 41.3086C432.041 42.0898 430.615 43.1152 429.17 44.3848C425.869 42.2949 423.115 41.25 420.908 41.25C418.838 41.25 416.768 42.2949 414.697 44.3848C412.764 42.7832 410.908 41.6309 409.131 40.9277C407.373 40.2051 405.449 39.7852 403.359 39.668V38.9648C404.238 38.6133 404.854 38.1152 405.205 37.4707C405.576 36.8066 405.762 35.5273 405.762 33.6328V22.5293C405.762 20.791 405.703 19.7363 405.586 19.3652C405.488 18.9746 405.176 18.4766 404.648 17.8711C403.809 16.8945 403.242 16.0645 402.949 15.3809C402.656 14.6777 402.51 13.877 402.51 12.9785C402.51 11.3379 403.018 9.90234 404.033 8.67188C405.049 7.42187 406.836 6.17188 409.395 4.92188L409.922 5.68359C407.812 7.14844 406.758 8.57422 406.758 9.96094C406.758 10.4492 406.875 10.9082 407.109 11.3379C407.227 11.5527 407.939 12.3828 409.248 13.8281C410.127 14.7852 410.801 15.8496 411.27 17.0215C411.543 17.7246 411.729 18.7305 411.826 20.0391L420.352 13.1543C421.914 14.1895 423.066 15.2637 423.809 16.377C424.57 17.4902 425.049 18.7695 425.244 20.2148ZM411.826 21.5039V36.5039L419.209 39.5801V23.6133C419.209 21.9336 419.033 20.752 418.682 20.0684C418.33 19.3848 417.529 18.6426 416.279 17.8418L411.826 21.5039ZM425.244 21.709V36.3574L432.686 39.4922V23.2031C432.686 21.7578 432.539 20.7715 432.246 20.2441C431.973 19.6973 431.162 18.9062 429.814 17.8711L425.244 21.709ZM458.525 24.0234L465.293 27.5684V39.9023C463.652 40.0586 462.168 40.459 460.84 41.1035C459.512 41.748 458.008 42.8418 456.328 44.3848C454.883 43.5254 453.623 42.9297 452.549 42.5977C451.494 42.2656 450.371 42.0996 449.18 42.0996C447.344 42.0996 445.713 42.6562 444.287 43.7695C443.76 44.1797 443.379 44.3848 443.145 44.3848C442.93 44.3848 442.715 44.2773 442.5 44.0625C442.285 43.8477 442.178 43.6328 442.178 43.418C442.178 43.1836 442.383 42.8711 442.793 42.4805C443.027 42.2461 443.428 41.7969 443.994 41.1328L446.66 37.8223L450.439 32.8125L444.023 29.3555V18.4277C446.035 17.8027 447.607 17.1094 448.74 16.3477C449.893 15.5664 450.996 14.502 452.051 13.1543C454.551 14.209 456.562 14.9512 458.086 15.3809C459.18 15.6738 460.225 15.8203 461.221 15.8203C462.314 15.8203 463.164 15.5859 463.77 15.1172C464.375 14.6289 464.678 14.1211 464.678 13.5938C464.678 13.2422 464.482 12.8906 464.092 12.5391C463.33 11.8555 462.949 11.1914 462.949 10.5469C462.949 9.94141 463.115 9.46289 463.447 9.11133C463.779 8.74023 464.15 8.55469 464.561 8.55469C465.107 8.55469 465.596 8.80859 466.025 9.31641C466.475 9.80469 466.699 10.459 466.699 11.2793C466.699 12.1191 466.523 12.9395 466.172 13.7402C465.82 14.541 465.146 15.5762 464.15 16.8457L458.525 24.0234ZM449.941 26.0449L453.955 28.125L460.342 19.6289C459.033 20 457.9 20.1855 456.943 20.1855C454.541 20.1855 452.207 19.3848 449.941 17.7832V26.0449ZM454.98 28.7109L447.92 38.1738C448.779 37.8809 449.58 37.666 450.322 37.5293C451.064 37.3926 451.738 37.3242 452.344 37.3242C454.59 37.3242 456.924 38.0664 459.346 39.5508V31.0547L454.98 28.7109Z" fill="#444444"/>
</svg>
